# AST/ASF file generated using VICON BodyLanguage
# -----------------------------------------------
:version 1.10
:name VICON
:units
  mass 1.0
  length 0.45
  angle deg
:documentation
   .ast/.asf automatically generated from VICON data using
   VICON BodyBuilder and BodyLanguage model FoxedUp or BRILLIANT.MOD
:root
   order TX TY TZ RX RY RZ
   axis XYZ
   position 0 0 0  
   orientation 0 0 0 
:bonedata
  begin
     id 1 
     name lhipjoint
     direction 0.627457 -0.725269 0.283342 
     length 2.53237 
     axis 0 0 0  XYZ
  end
  begin
     id 2 
     name lfemur
     direction 0.34202 -0.939693 0  
     length 7.32496  
     axis 0 0 20  XYZ
    dof rx ry rz
    limits (-160.0 20.0)
           (-70.0 70.0)
           (-60.0 70.0)
  end
  begin
     id 3 
     name ltibia
     direction 0.34202 -0.939693 0   
     length 7.69674   
     axis 0 0 20   XYZ
    dof rx
    limits (-10.0 170.0)
  end
  begin
     id 4 
     name lfoot
     direction 0.127289 -0.349722 0.928166   
     length 1.8612   
     axis -90 7.62852e-016 20   XYZ
    dof rx rz
    limits (-45.0 90.0)
           (-70.0 20.0)
  end
  begin
     id 5 
     name ltoes
     direction 1.53561e-011 -4.21864e-011 1   
     length 0.925608   
     axis -90 7.62852e-016 20   XYZ
    dof rx
    limits (-90.0 20.0)
  end
  begin
     id 6 
     name rhipjoint
     direction -0.609094 -0.738725 0.288599   
     length 2.48624  
     axis 0 0 0  XYZ 
  end
  begin
     id 7 
     name rfemur
     direction -0.34202 -0.939693 0   
     length 7.44259   
     axis 0 0 -20   XYZ
    dof rx ry rz
    limits (-160.0 20.0)
           (-70.0 70.0)
           (-70.0 60.0)
  end
  begin
     id 8 
     name rtibia
     direction -0.34202 -0.939693 0   
     length 7.7781   
     axis 0 0 -20   XYZ
    dof rx
    limits (-10.0 170.0)
 end
 begin
     id 9 
     name rfoot
     direction -0.107015 -0.294021 0.949789   
     length 2.14741  
     axis -90 -7.62852e-016 -20   XYZ
    dof rx rz
    limits (-45.0 90.0)
           (-20.0 70.0)
  end
  begin
     id 10 
     name rtoes
     direction -1.53497e-011 -4.21924e-011 1   
     length 1.0706   
     axis -90 -7.62852e-016 -20   XYZ
    dof rx
    limits (-90.0 20.0)
  end
  begin
     id 11 
     name lowerback
     direction -0.0142066 0.998112 -0.0597545   
     length 1.86627   
     axis 0 0 0   XYZ
    dof rx ry rz
    limits (-20.0 45.0)
           (-30.0 30.0)
           (-30.0 30.0)
  end
  begin
     id 12 
     name upperback
     direction 0.00547294 0.999744 0.0219437   
     length 1.86272   
     axis 0 0 0   XYZ
    dof rx ry rz
    limits (-20.0 45.0)
           (-30.0 30.0)
           (-30.0 30.0)
  end
  begin
     id 13 
     name thorax
     direction 0.0116162 0.998704 0.0495538   
     length 1.8703   
     axis 0 0 0   XYZ
    dof rx ry rz
    limits (-20.0 45.0)
           (-30.0 30.0)
           (-30.0 30.0)
  end
  begin
     id 14 
     name lowerneck
     direction -0.0106574 0.998739 0.0490586   
     length 1.8074   
     axis 0 0 0   XYZ
    dof rx ry rz
    limits (-20.0 45.0)
           (-30.0 30.0)
           (-30.0 30.0)
  end
  begin
     id 15 
     name upperneck
     direction 0.030527 0.976587 -0.212944   
     length 1.80681   
     axis 0 0 0   XYZ
    dof rx ry rz
    limits (-20.0 45.0)
           (-30.0 30.0)
           (-30.0 30.0)
  end
  begin
     id 16
     name head
     direction 0.00869225 0.997035 -0.0764531  
     length 1.8313  
     axis 0 0 0   XYZ
    dof rx ry rz
    limits (-20.0 45.0)
           (-30.0 30.0)
           (-30.0 30.0)
  end
  begin
     id 17 
     name lclavicle
     direction 0.915958 0.399447 0.0382386  
     length 3.78965  
     axis 0 0 0   XYZ
    dof ry rz
    limits (-20.0 10.0)
           (0.0 20.0)
  end
  begin
     id 18 
     name lhumerus
     direction 1 -4.48967e-011 3.19303e-027   
     length 4.78095   
     axis -180 -30 -90   XYZ
    dof rx ry rz
    limits (-60.0 90.0)
           (-90.0 90.0)
           (-90.0 90.0)
  end
  begin
     id 19
     name lradius
     direction 1 -4.48967e-011 -3.77974e-027   
     length 3.58615   
     axis -180 -30 -90   XYZ
    dof rx
    limits (-10.0 170.0)
  end
  begin
     id 20
     name lwrist
     direction 1 -4.48927e-011 1.2807e-027   
     length 1.79307   
     axis 1.91374e-015 90 90   XYZ
    dof ry
    limits (-180.0 0.0)
 end
  begin
     id 21 
     name lhand
     direction 1 -4.49036e-011 2.5614e-027   
     length 0.659812   
     axis -1.63439e-015 90 90   XYZ
    dof rx rz
    limits (-90.0 90.0)
           (-45.0 45.0)
  end
  begin
     id 22 
     name lfingers
     direction 1 -4.49052e-011 5.1228e-027   
     length 0.531957   
     axis -3.26879e-015 90 90   XYZ
    dof rx
    limits (0.0 90.0)
  end
  begin
     id 23
     name lthumb
     direction 0.707107 -6.35012e-011 0.707107   
     length 0.763787   
     axis -90 45 2.85299e-015   XYZ
    dof rx rz
    limits (-45.0 45.0)
           (-45.0 45.0)
  end
  begin
     id 24 
     name rclavicle
     direction -0.895351 0.435135 0.0948887   
     length 3.70497  
     axis 0 0 0   XYZ 
    dof ry rz
    limits (-10.0 20.0)
           (-20.0 0.0)
  end
  begin
     id 25 
     name rhumerus
     direction -1 -4.48971e-011 2.38946e-027  
     length 4.48913   
     axis -180 30 90   XYZ
    dof rx ry rz
    limits (-90.0 60.0)
           (-90.0 90.0)
           (-90.0 90.0)
  end
  begin
     id 26 
     name rradius
     direction -1 -4.4895e-011 4.38668e-027   
     length 3.7051   
     axis -180 30 90   XYZ
    dof rx
    limits (-10.0 170.0)
  end
  begin
     id 27 
     name rwrist
     direction -1 -4.49007e-011 1.2807e-027   
     length 1.85255   
     axis 1.91374e-015 -90 -90   XYZ
    dof ry
    limits (-180.0 0.0)
  end
  begin
     id 28
     name rhand
     direction -1 -4.48851e-011 2.5614e-027   
     length 0.449136   
     axis -1.63439e-015 -90 -90   XYZ
    dof rx rz
    limits (-90.0 90.0)
           (-45.0 45.0)
  end
  begin
     id 29
     name rfingers
     direction -1 -4.49128e-011 5.1228e-027   
     length 0.362105   
     axis -3.26879e-015 -90 -90   XYZ
    dof rx
    limits (0.0 90.0)
  end
  begin
     id 30
     name rthumb
     direction -0.707107 -6.34851e-011 0.707107   
     length 0.519912   
     axis -90 -45 -2.85299e-015   XYZ
    dof rx rz
    limits (-45.0 45.0)
           (-45.0 45.0)
  end
:hierarchy
  begin
    root lhipjoint rhipjoint lowerback
    lhipjoint lfemur
    lfemur ltibia
    ltibia lfoot
    lfoot ltoes
    rhipjoint rfemur
    rfemur rtibia
    rtibia rfoot
    rfoot rtoes
    lowerback upperback
    upperback thorax
    thorax lowerneck lclavicle rclavicle
    lowerneck upperneck
    upperneck head
    lclavicle lhumerus
    lhumerus lradius
    lradius lwrist
    lwrist lhand lthumb
    lhand lfingers
    rclavicle rhumerus
    rhumerus rradius
    rradius rwrist
    rwrist rhand rthumb
    rhand rfingers
  end

#!OML:ASF I:\Actors\actors\Patient Classification 2\Patient 1\Session 1\actor1.ASF
:FULLY-SPECIFIED
:DEGREES
1
root -1.0308 18.1462 5.06511 -1.95083 -6.36914 -4.93937
lowerback 7.06462 0.405119 2.89937
upperback -0.513259 0.883807 2.18297
thorax -4.49007 0.3939 0.539069
lowerneck -7.57904 -0.266898 -1.90783
upperneck 14.8969 -0.669675 3.61293
head 5.76106 -0.173043 1.40318
rclavicle 4.93467e-015 1.58034e-014
rhumerus -45.39 -5.04183 -86.4119
rradius 40.7158
rwrist 20.6842
rhand -5.9633 -28.3379
rfingers 7.12502
rthumb 19.8676 -57.3424
lclavicle 4.93467e-015 1.58034e-014
lhumerus -42.3454 8.91488 87.6464
lradius 35.7074
lwrist -13.9789
lhand -3.96054 -26.7611
lfingers 7.12502
lthumb 21.7919 2.03202
rfemur 0 0 0
rtibia 0
rfoot 0 0
rtoes 0
lfemur 18.9122 -5.30965 -12.0776
ltibia -19.3128
lfoot -3.12445 24.3067
ltoes -6.59647
2
root -1.0316 18.1445 5.04743 -2.02782 -6.25965 -4.8882
lowerback 7.26161 0.372135 2.78535
upperback -0.433755 0.836117 2.18271
thorax -4.52036 0.373084 0.606577
lowerneck -7.68036 -0.261729 -1.94971
upperneck 14.8171 -0.64646 3.56869
head 5.75287 -0.166677 1.39748
rclavicle -1.63298e-014 1.20265e-014
rhumerus -45.3534 -4.70279 -86.7249
rradius 40.7163
rwrist 20.7055
rhand -6.71655 -28.4529
rfingers 7.12502
rthumb 19.1434 -57.5308
lclavicle -1.63298e-014 1.20265e-014
lhumerus -42.2535 8.88536 87.6145
lradius 35.6713
lwrist -14.0164
lhand -3.96912 -26.7356
lfingers 7.12502
lthumb 21.7836 2.05855
rfemur 0 0 0
rtibia 0
rfoot 0 0
rtoes 0
lfemur 18.9084 -5.2915 -12.1074
ltibia -19.3591
lfoot -2.97173 24.2161
ltoes -6.69754
3
root -1.03376 18.1443 5.03171 -2.09608 -6.15524 -4.81212
lowerback 7.43795 0.356816 2.62454
upperback -0.35723 0.80677 2.18554
thorax -4.54238 0.362542 0.701857
lowerneck -7.75282 -0.300409 -1.91968
upperneck 14.7059 -0.685908 3.48189
head 5.73153 -0.190349 1.36175
rclavicle -6.95164e-015 -2.5842e-015
rhumerus -45.3641 -4.34152 -87.0144
rradius 40.8121
rwrist 20.8769
rhand -8.05706 -28.2307
rfingers 7.12502
rthumb 17.8539 -57.4311
lclavicle -6.95164e-015 -2.5842e-015
lhumerus -42.202 8.73548 87.6642
lradius 35.7404
lwrist -13.9319
lhand -4.05087 -26.7414
lfingers 7.12502
lthumb 21.7051 2.06181
rfemur 0 0 0
rtibia 0
rfoot 0 0
rtoes 0
lfemur 18.9052 -5.25201 -12.1602
ltibia -19.4189
lfoot -2.79334 24.0985
ltoes -6.88714
4
root -1.03573 18.1443 5.01709 -2.13014 -6.05375 -4.77104
lowerback 7.58398 0.346387 2.50189
upperback -0.298693 0.786781 2.20073
thorax -4.56556 0.355751 0.787857
lowerneck -7.84954 -0.342193 -1.93624
upperneck 14.6843 -0.733873 3.45093
head 5.74279 -0.216019 1.35123
rclavicle -2.03754e-015 -2.98177e-016
rhumerus -45.4211 -4.0008 -87.2315
rradius 40.9661
rwrist 21.2826
rhand -8.87341 -27.1131
rfingers 7.12502
rthumb 17.0683 -56.3833
lclavicle -2.03754e-015 -2.98177e-016
lhumerus -42.1187 8.68042 87.6786
lradius 35.7424
lwrist -13.9527
lhand -4.21743 -26.9178
lfingers 7.12502
lthumb 21.5452 1.90377
rfemur 0 0 0
rtibia 0
rfoot 0 0
rtoes 0
lfemur 18.8721 -5.1626 -12.1663
ltibia -19.4841
lfoot -2.59602 23.9607
ltoes -6.95046
5
root -1.03639 18.1436 5.00291 -2.12212 -5.96852 -4.77808
lowerback 7.67141 0.343475 2.46364
upperback -0.245182 0.781336 2.20323
thorax -4.55956 0.354208 0.812041
lowerneck -7.90667 -0.354764 -1.99276
upperneck 14.6278 -0.751569 3.52158
head 5.73581 -0.222307 1.38129
rclavicle -6.3448e-015 -5.26779e-015
rhumerus -45.4215 -3.79266 -87.3592
rradius 41.0216
rwrist 21.6015
rhand -9.29341 -26.1995
rfingers 7.12502
rthumb 16.664 -55.5042
lclavicle -6.3448e-015 -5.26779e-015
lhumerus -41.9849 8.64863 87.6427
lradius 35.7215
lwrist -14.0272
lhand -4.37778 -27.0337
lfingers 7.12502
lthumb 21.3911 1.80553
rfemur 0 0 0
rtibia 0
rfoot 0 0
rtoes 0
lfemur 18.8063 -5.08351 -12.125
ltibia -19.5384
lfoot -2.38011 23.8518
ltoes -7.14416
6
root -1.03788 18.1443 4.99064 -2.09106 -5.88244 -4.76243
lowerback 7.69601 0.35712 2.42174
upperback -0.183228 0.793049 2.16876
thorax -4.50877 0.361193 0.798206
lowerneck -7.92206 -0.377684 -2.01799
upperneck 14.4575 -0.793669 3.64922
head 5.68689 -0.235647 1.42169
rclavicle -4.73201e-015 -3.97569e-015
rhumerus -45.3204 -3.73538 -87.4377
rradius 41.0042
rwrist 21.658
rhand -9.59689 -25.9985
rfingers 7.12502
rthumb 16.3718 -55.3275
lclavicle -4.73201e-015 -3.97569e-015
lhumerus -41.8255 8.44181 87.6404
lradius 35.7571
lwrist -13.9397
lhand -4.50355 -26.9933
lfingers 7.12502
lthumb 21.2703 1.85955
rfemur 0 0 0
rtibia 0
rfoot 0 0
rtoes 0
lfemur 18.7231 -5.05106 -12.1136
ltibia -19.5856
lfoot -2.17641 23.7594
ltoes -7.56424
7
root -1.03943 18.1461 4.98071 -2.04277 -5.78418 -4.70255
lowerback 7.6773 0.376028 2.34386
upperback -0.133692 0.806462 2.11611
thorax -4.44671 0.369673 0.785766
lowerneck -7.99733 -0.415732 -1.97602
upperneck 14.3665 -0.856621 3.70872
head 5.67341 -0.259489 1.42847
rclavicle 1.69976e-014 6.36111e-015
rhumerus -45.2138 -3.71621 -87.4674
rradius 40.9795
rwrist 21.4728
rhand -8.08877 -26.7141
rfingers 7.12502
rthumb 17.8234 -55.9174
lclavicle 1.69976e-014 6.36111e-015
lhumerus -41.6509 8.2212 87.637
lradius 35.8044
lwrist -13.7842
lhand -4.48391 -26.9154
lfingers 7.12502
lthumb 21.2892 1.9353
rfemur 0 0 0
rtibia 0
rfoot 0 0
rtoes 0
lfemur 18.6253 -5.04208 -12.152
ltibia -19.6473
lfoot -2.01811 23.6774
ltoes -7.75378
8
root -1.03939 18.1459 4.97219 -2.02079 -5.70368 -4.68203
lowerback 7.68876 0.384131 2.32021
upperback -0.102907 0.813222 2.0857
thorax -4.42088 0.373516 0.766619
lowerneck -8.06599 -0.430939 -1.90516
upperneck 14.3499 -0.879495 3.66704
head 5.68038 -0.269191 1.40191
rclavicle 1.47768e-014 -8.74653e-015
rhumerus -45.1493 -3.62688 -87.4658
rradius 40.98
rwrist 21.1702
rhand -3.10404 -29.4342
rfingers 7.12502
rthumb 22.6141 -58.1295
lclavicle 1.47768e-014 -8.74653e-015
lhumerus -41.5095 8.15649 87.5704
lradius 35.8563
lwrist -13.7079
lhand -4.33051 -26.9017
lfingers 7.12502
lthumb 21.4365 1.93232
rfemur 0 0 0
rtibia 0
rfoot 0 0
rtoes 0
lfemur 18.5679 -5.03193 -12.1543
ltibia -19.7101
lfoot -1.89401 23.6125
ltoes -7.79352
9
root -1.03846 18.1445 4.96347 -2.01303 -5.60906 -4.71716
lowerback 7.73228 0.374453 2.36631
upperback -0.0806798 0.805456 2.08562
thorax -4.42165 0.368707 0.741287
lowerneck -8.0818 -0.435131 -1.85238
upperneck 14.3117 -0.877898 3.57907
head 5.67064 -0.271927 1.36542
rclavicle 1.60922e-014 -1.88845e-015
rhumerus -45.0784 -3.47341 -87.4287
rradius 41.0251
rwrist 20.9321
rhand -7.15694 -27.4965
rfingers 7.12502
rthumb 18.7199 -56.6157
lclavicle 1.60922e-014 -1.88845e-015
lhumerus -41.4086 8.09794 87.5371
lradius 35.9597
lwrist -13.566
lhand -4.29727 -26.8482
lfingers 7.12502
lthumb 21.4685 1.98218
rfemur 0 0 0
rtibia 0
rfoot 0 0
rtoes 0
lfemur 18.5306 -4.99971 -12.0962
ltibia -19.7692
lfoot -1.77789 23.5296
ltoes -7.85232
10
root -1.03782 18.1457 4.95573 -1.95094 -5.49659 -4.7295
lowerback 7.68552 0.363367 2.38665
upperback -0.0635524 0.790325 2.09018
thorax -4.37736 0.36123 0.736593
lowerneck -8.10612 -0.447801 -1.86923
upperneck 14.2996 -0.886598 3.54324
head 5.67126 -0.279417 1.35625
rclavicle 1.69371e-014 -8.05078e-015
rhumerus -44.9427 -3.33331 -87.2983
rradius 40.9447
rwrist 20.783
rhand -7.19995 -27.7748
rfingers 7.12502
rthumb 18.6785 -56.898
lclavicle 1.69371e-014 -8.05078e-015
lhumerus -41.2855 8.05775 87.5427
lradius 36.068
lwrist -13.4141
lhand -4.39077 -26.6964
lfingers 7.12502
lthumb 21.3787 2.14418
rfemur 0 0 0
rtibia 0
rfoot 0 0
rtoes 0
lfemur 18.4388 -5.00072 -12.065
ltibia -19.835
lfoot -1.6847 23.4655
ltoes -7.74437
